<svg xmlns="http://www.w3.org/2000/svg" id="Capa_1" data-name="Capa 1" viewBox="0 0 1054.48 439.35"><defs><style>.cls-1{fill:#fff}</style></defs><path d="M258.75 251.12h15.61a28.57 28.57 0 0 0 7 15.44 37.8 37.8 0 0 0 15.44 10.29 61.87 61.87 0 0 0 22.08 3.66q18.76 0 29.81-6.39t11-17.52a14.51 14.51 0 0 0-6.89-13q-6.88-4.49-24.16-6.48l-23.91-3Q282 231.52 272 223.3t-10-22.17a29.84 29.84 0 0 1 6.65-19.34q6.63-8.22 18.68-12.62t28-4.4q16.26 0 28.73 4.9T364 183.28a33.84 33.84 0 0 1 8 20.51h-15.61a24 24 0 0 0-6.31-13.7 35.35 35.35 0 0 0-14.28-9 61 61 0 0 0-20.75-3.24q-17.12 0-27.32 6.06t-10.21 16.89a14.47 14.47 0 0 0 6.72 12.79q6.74 4.49 23 6.48l23.58 3q16.28 2.16 26.07 5.9t14 10.13q4.23 6.39 4.24 16.19a31.28 31.28 0 0 1-7.06 20.42Q361 284.33 348.34 289t-29.81 4.65q-17.1 0-30.3-5.4t-21-15a37.2 37.2 0 0 1-8.48-22.13Zm136.17-87.51H410v127.86h-15.08Zm53.8 32.21q13.11 0 22.25 5.23a34.25 34.25 0 0 1 13.95 15.11q4.81 9.89 4.82 24v51.31h-15.28v-48.82q0-16.77-7.72-25.33t-22.5-8.55a34.25 34.25 0 0 0-18 4.65 31.62 31.62 0 0 0-12 12.87 41.39 41.39 0 0 0-4.24 19.18l-6.15-4.32q1.17-14 7.14-24.07a42.68 42.68 0 0 1 15.7-15.7 43.54 43.54 0 0 1 22.03-5.56Zm159.41 48.99a77.75 77.75 0 0 1-11.21 25.57 55.79 55.79 0 0 1-18.26 17.1 46.69 46.69 0 0 1-23.66 6.15 47.4 47.4 0 0 1-24.41-6.23 44.48 44.48 0 0 1-16.69-17.19q-6.06-10.95-6.06-25.4 0-14.61 6.06-25.58a44.53 44.53 0 0 1 16.69-17.18 47.4 47.4 0 0 1 24.41-6.23 46.69 46.69 0 0 1 23.66 6.18A56.65 56.65 0 0 1 597 219.07a74.24 74.24 0 0 1 11.13 25.74Zm-84.69 0a38.85 38.85 0 0 0 4.4 18.76 32.45 32.45 0 0 0 12 12.7 33.59 33.59 0 0 0 17.61 4.57 37.66 37.66 0 0 0 18.34-4.57 49.7 49.7 0 0 0 14.95-12.7 70.68 70.68 0 0 0 10.71-18.76 69.87 69.87 0 0 0-10.71-18.93 49.88 49.88 0 0 0-14.95-12.71 37.76 37.76 0 0 0-18.34-4.56 33.68 33.68 0 0 0-17.61 4.56 32.55 32.55 0 0 0-12 12.71 39.2 39.2 0 0 0-4.4 18.93Zm78.71 46.66-3.32-35.37 4.17-11.29-4.15-11.46 3.3-35.35h15.61l-4.48 46.83 4.48 46.66ZM636.36 198h15.11l5.31 31.88v61.61h-15.11V227Zm70.24-.33v13.78a40.59 40.59 0 0 0-7.39-1.49 68.62 68.62 0 0 0-8.22-.5 34.53 34.53 0 0 0-17.68 4.48 31.08 31.08 0 0 0-12.12 13q-4.41 8.55-4.41 20.17l-4.31-6a60.65 60.65 0 0 1 3.24-18.1 43.94 43.94 0 0 1 8.13-14.36 37.23 37.23 0 0 1 12.54-9.47 39 39 0 0 1 16.6-3.4 56.18 56.18 0 0 1 7.39.5 33.59 33.59 0 0 1 6.23 1.37Zm14.45.33h15.11v35.53l-.83 2.83v15.11l.83 4.82v62.6h-15.11Zm8.13 46.83a75.3 75.3 0 0 1 11.05-25.74A55.38 55.38 0 0 1 758.58 202a49.6 49.6 0 0 1 48 .08 44.5 44.5 0 0 1 16.68 17.18q6.06 11 6.06 25.58 0 14.44-6.06 25.4a44.46 44.46 0 0 1-16.68 17.19 49.44 49.44 0 0 1-47.91.08 56.55 56.55 0 0 1-18.35-17.1 74.65 74.65 0 0 1-11.14-25.6Zm84.69 0a39.2 39.2 0 0 0-4.4-18.93 32.25 32.25 0 0 0-12.12-12.71 34.11 34.11 0 0 0-17.68-4.56 37.94 37.94 0 0 0-18.27 4.56 48.47 48.47 0 0 0-14.95 12.71 71 71 0 0 0-10.62 18.93 71.86 71.86 0 0 0 10.62 18.76 48.3 48.3 0 0 0 14.95 12.7 37.83 37.83 0 0 0 18.27 4.57 34 34 0 0 0 17.68-4.57 32.16 32.16 0 0 0 12.12-12.7 38.85 38.85 0 0 0 4.4-18.78Zm84.36 48.8q-16.11 0-28.48-6.23a48.41 48.41 0 0 1-19.43-17.19q-7.07-10.95-7.06-25.57 0-14.44 6.64-25.41a46.62 46.62 0 0 1 18.35-17.18q11.71-6.23 27.15-6.23 15.11 0 26.32 6.64a45.49 45.49 0 0 1 17.44 18.68q6.23 12 6.23 28h-90.67V237h84.35l-9 5.65a39.14 39.14 0 0 0-5-18.27A31 31 0 0 0 913 212.59a37.07 37.07 0 0 0-17.93-4.15 39.61 39.61 0 0 0-19.1 4.4 31.31 31.31 0 0 0-12.62 12.37 37.67 37.67 0 0 0-4.48 18.79 36.91 36.91 0 0 0 5.06 19.59 33.83 33.83 0 0 0 14.37 12.87q9.3 4.57 21.92 4.57a67.3 67.3 0 0 0 22.66-3.91 73 73 0 0 0 19.85-10.54v12a66.38 66.38 0 0 1-20.67 11 74.23 74.23 0 0 1-23.83 4.05ZM972 183.86a11.29 11.29 0 0 1-8-2.9 9.42 9.42 0 0 1-3.15-7.22 9.6 9.6 0 0 1 3.15-7.39 11.29 11.29 0 0 1 8-2.91 11.53 11.53 0 0 1 8.14 2.91 9.61 9.61 0 0 1 3.16 7.39 9.43 9.43 0 0 1-3.16 7.22 11.53 11.53 0 0 1-8.14 2.9Zm-7.47 13.79L972 199l7.64-1.33v93.82h-15.16Zm-690.25-70.74s-4.34-.63-4.15 2.76 1.54 8 3.06 9.17 5.88 1.82 5.87-1.38-.16-9.69-4.78-10.55ZM97 167.37c-1.73-5.09-4.21-12.83-4.77-16.9-.87-6.41.65-6.66 3-7h.12c2.28-.05 3.34 6.73 5.07 13.64a37.31 37.31 0 0 0 3.25 8.35 22 22 0 0 0-6.67 1.91Zm106-57.66c-1.77-8.74-4.82-19.2-9.92-25.5a14.55 14.55 0 0 1 3.63-.21c3.65.48 11.42 1.62 17.25 8.54s11 21.8 11.94 30.81c.09.89.18 1.71.25 2.49a106.36 106.36 0 0 0-12.6 6.16 75.57 75.57 0 0 0-7.79 5.11 133.15 133.15 0 0 0-2.76-27.4Z" class="cls-1"/><path d="M270.42 132.11a19.55 19.55 0 0 0 1.68 5.3 8 8 0 0 1-2.64.59 3.78 3.78 0 0 1-1.42-.23c-2.39-.91-1.3-4.85-1.3-4.85ZM132 200.25c-.76-5.39-7-27-18.07-30.68a23.28 23.28 0 0 0-7.79-1.25c-6.87.13-11.54 3.6-12.78 5.59-2.79 4.46-2.81 10.8-1.76 18.24 1.13 7.92 6 19.71 11.51 27.46a28.59 28.59 0 0 1 4.62-.47 29.85 29.85 0 0 1 6.51.61c1.2-6.87 6.57-13.58 13.89-16.87a23.84 23.84 0 0 1 4-1.25c-.02-.46-.06-.92-.13-1.38ZM105.08 216c-4.89-3.65-6.91-12-6.91-12 1.8 2.25 3.82 7.75 9.92 8.93 4.21.78.64 5.78-3.01 3.07Zm16.24 24.16c-4.42-3.4-6.87-9-7.31-16.69v-.71a26.93 26.93 0 0 0-6.21-.62 23.46 23.46 0 0 0-17.14 7.68c-7 7.61-13.36 20-16.43 29.66s-3.61 28.52-2.35 34.79 5.44 12.12 9.61 13.71a26.69 26.69 0 0 0 8.8 1c4.53-.08 9.4-.9 11.95-2.75 4.56-3.33 13.62-33.77 17-43a83.52 83.52 0 0 0 4.85-21.39 16.63 16.63 0 0 1-2.77-1.68Zm-28 65.67c-9.16.78-13.92-2.35-17.43-9.07a20 20 0 0 1-2.37-12.29s1.08 8.67 6.37 13.4c3.22 2.89 7.87 3.7 14.63 2.79 3.48-.46 5.94 4.56-1.19 5.17Zm38.27-61.48a36.1 36.1 0 0 1-4.59-1.26 86.21 86.21 0 0 1-4.94 21.21c-.77 2.11-1.87 5.41-3.14 9.23-2.1 6.31-4.71 14.17-7.23 20.75-2.66 6.93-4.44 10.44-5.79 12.36 5.75 1.19 13 .28 21.09-10.34 7.71-10.08 14.71-32.95 15.75-42.52.29-2.64.46-5.55.57-8.29a61.94 61.94 0 0 1-11.72-1.14Zm-13 57.07a8.17 8.17 0 0 1-4.52 2.82c-1.8.43-3.18.53-2.82-1.19.16-.79.49-1.71 3.76-3.23s4.48.35 3.61 1.6Z" class="cls-1"/><path d="M166.47 201.41h-3.24c-11.37.2-29 2-33.87 4.18-7.51 3.41-12.74 10.94-12.36 17.71.34 6 2 11.31 6.15 14.49s12.51 4.87 22.32 4.69h1.38a59.51 59.51 0 0 0 7-.76c-.12-2.1-.18-4.22-.15-6.4.11-11.56 8.6-17.53 13.67-21.09l.26-.19a11.81 11.81 0 0 1 1.53-.89 29 29 0 0 1-2.69-11.74Zm-27.93 38.93c-8.1-.66-13.23-2.67-16-5.83s1-5.86 2.38-3.09c3.7 7.5 21.16 8.7 21.16 8.7a32.27 32.27 0 0 1-7.54.22Z" class="cls-1"/><path d="M222.36 287.76c-2.48-11.86-14.56-29.07-19.62-42.37s-6.13-28.26-17.59-30.55a43.22 43.22 0 0 0-7-.49c-3.12.06-6.59.54-8.83 2.11-4.92 3.47-12.56 8.66-12.66 18.86s1.3 22.81 9.2 42.29 18.07 31 27.51 33.81a34.47 34.47 0 0 0 10.41 1.3c6-.11 11.34-1.5 13.3-2.64 3.92-2.31 7.77-10.45 5.28-22.32Zm-3.88 17a7.57 7.57 0 0 1-3.91 3.44 31.29 31.29 0 0 1-20.17.53c-4.62-1.68-9.44-4.36-8.39-6 2.29-3.5 4.45 1.95 10.75 3.58 4.28 1.11 8.63 2.29 14.6 1.05 5.37-1.09 7.64-3.5 7.12-2.62Z" class="cls-1"/><path d="M243.2 279.79c-3.14-15.45-8.2-24.68-14.38-37.92s-14.14-21.85-20-24.35a32.1 32.1 0 0 0-8-2.32l-1.11 1.37a14.77 14.77 0 0 1-3.31 3c.24.37.47.74.69 1.13 2.32 4 3.79 9 5.36 14.2.94 3.13 1.91 6.37 3.08 9.46 2.07 5.45 5.47 11.79 8.76 17.92 4.66 8.67 9.47 17.64 11 24.91a33.16 33.16 0 0 1-.3 16.22 19.22 19.22 0 0 1-3.36 6.59 26.92 26.92 0 0 0 11-1.26c6.97-2.12 13.71-13.5 10.57-28.95Zm-9.92 26.56c-3.6 1.61-7.71 1.86-7.23-.21.84-3.65 2.6-2.81 5.76-2.74 4.56.1 8.79-5.83 8.79-5.83s-2.83 6.77-7.32 8.78Zm-22.95-135.54a21.17 21.17 0 0 1-11.09-5.92 15.72 15.72 0 0 1-4-7.43 1.16 1.16 0 0 1 0-.18 19.87 19.87 0 0 1-7 1.62H187c-1 0-2 0-3-.1a29.48 29.48 0 0 0-7.11 10.05c-1.7 4.23-6.89 17.09-7.34 28.3-.29 7.29.89 11.65 2.48 14.9a26.77 26.77 0 0 1 6.12-.74 46.75 46.75 0 0 1 7.58.52h.09a15.43 15.43 0 0 1 8.88 5.23 11.86 11.86 0 0 0 2.78-2.47c6-7.32 9-12.14 11.9-27.54a56.47 56.47 0 0 0 .95-16.24ZM174.62 208c-5.82-8.37.18-24.74.18-24.74-1.85 22.53 3.61 19.29 3.65 23.91a2 2 0 0 1-3.83.83Zm25.48-97.7c-3.11-15.39-8-25.33-13.87-28a26.25 26.25 0 0 0-9.53-1.82 14 14 0 0 0-6.58 1.62c-20.59 11.46-10.44 48-6.83 56.4 1.91 4.44 7.61 17.73 23.58 17.44h1.14a16.28 16.28 0 0 0 6.87-1.8c.1-2.44 1.18-5 4.14-10.06a20.36 20.36 0 0 1 3.62-4.32c.49-6.46-.25-18.12-2.54-29.46Zm-10.38 42.32c-6 1.39-12.23-1.11-16.9-4.89-6.26-5.07-9.74-16.6-9.74-16.6s5.35 9.33 8.27 11.87a22.56 22.56 0 0 0 15.35 5.42c7.95-.6 5.3 3.67 3.02 4.2Z" class="cls-1"/><path d="M270.55 139.4a7.9 7.9 0 0 1-1.06.1 5.33 5.33 0 0 1-2-.33c-2.89-1.1-2.74-4.7-2.2-6.65a1.51 1.51 0 0 1 1.12-1.06l.94-.21c-1.55-2.23-4.26-5.2-8-6a53.79 53.79 0 0 0-10.9-.78 61.09 61.09 0 0 0-16.2 2.32c-9.13 2.78-26.53 11.7-30.65 18.72s-4 8.36-3.43 11.27 3.47 9.34 13.77 11.25a81.54 81.54 0 0 0 13.83.69c10.75-.2 24.36-1.74 31.39-6.2 9.4-6 11.43-10 12.64-12.75a20.86 20.86 0 0 0 .75-10.37Zm-61.2 25.18c-8.6-3.55-10.56-8.86-7.52-9.36 3.26-.54 1.79 4.19 9.21 7.52 7.69 3.44 30 2.74 30 2.74s-20.41 3.75-31.69-.9Z" class="cls-1"/></svg>