<svg width="180" height="180" viewBox="0 0 180 180" fill="none" xmlns="http://www.w3.org/2000/svg">
<path fill-rule="evenodd" clip-rule="evenodd" d="M123.312 62.4811C126.83 67.4553 130.652 72.3991 134.807 77.2824C138.364 81.4876 141.831 85.5595 145.153 89.4601C145.712 90.1172 146.267 90.7693 146.818 91.4165L162.574 110.252H108.389V124.386H180V110.252C176.061 105.498 172.399 101.074 169.008 96.9766C165.585 92.8402 162.437 89.0368 159.557 85.5627C153.855 78.6776 149.002 72.7632 145.059 67.8496C141.086 62.9664 137.931 58.7807 135.535 55.323C133.17 51.8653 131.289 48.8929 129.985 46.3755C128.65 43.858 127.771 41.5529 127.346 39.4904C126.891 37.428 126.679 35.3049 126.679 33.1817C126.679 29.4207 127.498 26.0843 129.135 23.2029C130.773 20.2912 133.048 18.0771 135.93 16.4999C138.811 14.9227 142.147 14.1341 145.908 14.1341C151.307 14.1341 156.069 15.8932 160.224 19.4116C164.38 22.9299 166.442 27.5402 166.442 33.1817H179.636C180.273 26.9033 179.06 21.2921 176.057 16.3179C173.054 11.3437 168.869 7.40065 163.531 4.42825C158.192 1.48617 152.308 0 145.908 0C140.631 0 135.869 0.849246 131.592 2.54776C127.316 4.24628 123.706 6.61202 120.764 9.61476C117.792 12.6175 115.547 16.1359 113.97 20.1698C112.393 24.2038 111.604 28.5411 111.604 33.1817C111.604 37.8223 112.696 42.6449 114.819 47.5888C116.973 52.563 119.794 57.5069 123.312 62.4811ZM13.7049 138.276H0.329048C-0.156241 140.126 -0.0955543 142.734 0.450397 146.04C1.08734 149.377 2.36121 152.956 4.27204 156.717C6.18287 160.478 8.94296 164.117 12.522 167.575C16.101 171.033 20.7112 173.854 26.3527 176.007C31.9639 178.161 38.758 179.252 46.6743 179.252C55.9555 179.252 63.5381 177.706 69.4222 174.612C75.2761 171.518 79.6133 167.454 82.4038 162.449C85.1942 157.445 86.5893 152.015 86.5893 146.192C86.5893 140.126 85.4975 135.091 83.344 131.057C81.1905 127.053 78.3394 123.747 74.8211 121.139C71.2724 118.561 67.4507 116.377 63.2955 114.648C59.1402 112.919 55.1062 111.433 51.1328 110.19C45.0667 108.218 39.9712 106.398 35.8159 104.73C31.6909 103.062 28.3849 101.363 25.9888 99.6346C23.5927 97.9057 21.8638 96.0251 20.8022 93.9627C19.7406 91.9305 19.2251 89.5648 19.2251 86.835C19.2251 80.6476 21.5909 76.098 26.2921 73.1863C30.9933 70.2745 36.5135 68.8186 42.8223 68.8186C50.3746 68.8186 56.5014 70.7598 61.2026 74.5814C65.9039 78.4031 68.391 84.7118 68.6336 93.5077H82.0094C82.2521 81.8911 79.1584 72.5493 72.7283 65.4823C66.2982 58.4152 56.5621 54.8969 43.5805 54.8969C35.27 54.8969 28.2029 56.4134 22.3187 59.4465C16.4346 62.4796 11.976 66.4528 8.94298 71.336C5.90992 76.2193 4.39339 81.4362 4.39339 87.017C4.39339 92.6888 5.69758 97.5417 8.30602 101.576C10.9145 105.61 14.3418 109.037 18.6185 111.888C22.8951 114.739 27.5053 117.166 32.4492 119.137C37.3931 121.109 42.2763 122.837 47.0989 124.324C52.1945 125.931 56.562 127.599 60.2927 129.328C63.993 131.057 66.8441 133.15 68.8156 135.637C70.7871 138.094 71.788 141.4 71.788 145.464C71.788 149.437 70.8174 152.895 68.9066 155.867C66.9958 158.84 64.1447 161.175 60.3837 162.844C56.6227 164.512 51.9518 165.361 46.371 165.361C39.9409 165.361 34.3297 164.178 29.5678 161.843C24.8059 159.507 21.0752 156.262 18.3454 152.197C15.6157 148.103 14.0688 143.462 13.7049 138.276Z" fill="#DF3236"/>
</svg>
